<svg width="242" height="48" viewBox="0 0 242 48" fill="none" xmlns="http://www.w3.org/2000/svg">
<path d="M2.4 10V38H8.8V10H2.4ZM36.6109 17.44C33.7709 17.44 31.9309 18.48 30.8109 20.08C29.6909 18.4 27.9309 17.44 25.5709 17.44C22.8909 17.44 21.1309 18.48 20.2109 19.84V18H14.2109V38H20.2109V26.72C20.2109 24.36 21.3309 22.96 23.3309 22.96C25.2509 22.96 26.2109 24.24 26.2109 26.24V38H32.2109V26.72C32.2109 24.36 33.3309 22.96 35.3309 22.96C37.2509 22.96 38.2109 24.24 38.2109 26.24V38H44.2109V25.72C44.2109 20.72 41.2109 17.44 36.6109 17.44ZM71.5125 17.44C68.6725 17.44 66.8325 18.48 65.7125 20.08C64.5925 18.4 62.8325 17.44 60.4725 17.44C57.7925 17.44 56.0325 18.48 55.1125 19.84V18H49.1125V38H55.1125V26.72C55.1125 24.36 56.2325 22.96 58.2325 22.96C60.1525 22.96 61.1125 24.24 61.1125 26.24V38H67.1125V26.72C67.1125 24.36 68.2325 22.96 70.2325 22.96C72.1525 22.96 73.1125 24.24 73.1125 26.24V38H79.1125V25.72C79.1125 20.72 76.1125 17.44 71.5125 17.44ZM96.9341 18V28.92C96.9341 31.76 95.4141 33.04 93.2141 33.04C91.2941 33.04 89.7341 31.88 89.7341 29.4V18H83.7341V30.28C83.7341 35.68 87.1741 38.56 91.2141 38.56C93.8541 38.56 95.8541 37.6 96.9341 36.12V38H102.934V18H96.9341ZM119.854 17.44C117.214 17.44 115.214 18.4 114.134 19.88V18H108.134V38H114.134V27.08C114.134 24.24 115.654 22.96 117.854 22.96C119.774 22.96 121.334 24.12 121.334 26.6V38H127.334V25.72C127.334 20.32 123.894 17.44 119.854 17.44ZM141.855 38.56C147.735 38.56 152.455 33.96 152.455 28C152.455 22.04 147.735 17.44 141.855 17.44C135.975 17.44 131.255 22.04 131.255 28C131.255 33.96 135.975 38.56 141.855 38.56ZM141.855 32.72C139.255 32.72 137.255 30.84 137.255 28C137.255 25.16 139.255 23.28 141.855 23.28C144.455 23.28 146.455 25.16 146.455 28C146.455 30.84 144.455 32.72 141.855 32.72Z" fill="white"/>
<path d="M169 10H158.4V38H164.8V29.2H169C174.52 29.2 178.8 24.92 178.8 19.6C178.8 14.28 174.52 10 169 10ZM169 23.2H164.8V16H169C170.96 16 172.4 17.56 172.4 19.6C172.4 21.64 170.96 23.2 169 23.2ZM195.903 18V19.88C194.583 18.36 192.623 17.44 189.943 17.44C184.703 17.44 180.383 22.04 180.383 28C180.383 33.96 184.703 38.56 189.943 38.56C192.623 38.56 194.583 37.64 195.903 36.12V38H201.903V18H195.903ZM191.143 32.88C188.383 32.88 186.383 31 186.383 28C186.383 25 188.383 23.12 191.143 23.12C193.903 23.12 195.903 25 195.903 28C195.903 31 193.903 32.88 191.143 32.88ZM212.589 23.84C212.589 23.12 213.229 22.72 214.269 22.72C215.589 22.72 216.389 23.44 216.949 24.48L222.069 21.72C220.389 18.88 217.509 17.44 214.269 17.44C210.109 17.44 206.429 19.64 206.429 24C206.429 30.92 216.269 29.76 216.269 31.96C216.269 32.76 215.549 33.2 214.109 33.2C212.349 33.2 211.229 32.36 210.709 30.84L205.509 33.8C207.069 37.04 210.109 38.56 214.109 38.56C218.429 38.56 222.429 36.6 222.429 32C222.429 24.6 212.589 26.12 212.589 23.84ZM230.889 23.84C230.889 23.12 231.529 22.72 232.569 22.72C233.889 22.72 234.689 23.44 235.249 24.48L240.369 21.72C238.689 18.88 235.809 17.44 232.569 17.44C228.409 17.44 224.729 19.64 224.729 24C224.729 30.92 234.569 29.76 234.569 31.96C234.569 32.76 233.849 33.2 232.409 33.2C230.649 33.2 229.529 32.36 229.009 30.84L223.809 33.8C225.369 37.04 228.409 38.56 232.409 38.56C236.729 38.56 240.729 36.6 240.729 32C240.729 24.6 230.889 26.12 230.889 23.84Z" fill="white"/>
</svg>
